<?xml version="1.0" encoding="utf-8"?>
<svg version="1.1" id="Layer_1" xmlns="http://www.w3.org/2000/svg" xmlns:xlink="http://www.w3.org/1999/xlink" x="0px" y="0px"
	viewBox="0 0 498 499" fill="currentColor" style="enable-background:new 0 0 498 499;" xml:space="preserve">
    <path d="M298.16,262.33c10.07,0,19.71,3.23,28.92,9.69c3.7,2.66,6.84,5.63,9.4,8.9c2.56,3.28,5.89,8.67,9.97,16.17
        c2.85,5.32,5.79,9.02,8.83,11.11c3.04,2.09,6.98,3.13,11.83,3.13c5.32,0,10.11-1.42,14.39-4.27c7.88-5.32,11.83-13.72,11.83-25.22
        c0-16.33-4.56-30.01-13.68-41.03c-3.71-4.56-8.03-6.84-12.97-6.84c-1.52,0-2.91,0.14-4.14,0.43c-3.8,0.85-6.57,1.28-8.28,1.28
        c-2.37,0-6.63-1.42-12.71-4.27c-8.3-3.91-16.86-6.54-25.56-7.94c-0.67-0.26-1.63-0.32-2.59-0.35c-1.8-0.24-4.15-0.43-5.97-0.56
        c-6.14-1.8-13.74-9.77-13.74-46.14v-37.52c0-56.27-57.75-64.53-79.13-64.53c-35.64,0-98.41,20.63-98.41,52.52
        c0,12,9.08,20.63,21.08,20.63c33.39,0,35.68-40.52,58.19-40.52c17.26,0,17.65,25.89,17.65,38.27c0,13.5-5.24,12.75-16.87,12.75
        c-66.03,0-91.53,33.01-91.53,59.65c0,37.14,31.14,53.65,62.28,53.65c17.26,0,28.51-4.88,36.77-9.75c8.25-4.5,13.13-9.38,17.63-9.38
        c1.32,0,2.47,0.46,3.56,1.23c-4.04,3.89-7.81,8.06-11.23,12.59c-13.11,17.38-19.66,36.61-19.66,57.7c0,18.14,5.22,35.52,15.67,52.14
        c10.64,17.1,25.12,29.78,43.45,38.04c15.76,7.12,31.58,10.69,47.44,10.69c26.12,0.13,41.12,0.13,70.67-19.66
        c6.39-5.28,9.7-11.63,11.97-16.1c2.38-4.69,4.99-10.67,4.99-18.52c0-4.37-1.19-8.1-3.56-11.18c-2.38-3.09-5.23-4.63-8.55-4.63
        c-2.28,0-5.23,1.71-8.83,5.13c-4.18,4.08-10.04,7.41-17.6,9.97c-7.55,2.56-15.17,3.85-22.87,3.85c-20.9,0-36.95-9.07-48.16-27.21
        c-8.26-13.58-12.39-28.54-12.39-44.88c0-11.87,2.87-21.35,8.62-28.42C280.61,265.86,288.38,262.33,298.16,262.33z M214.22,203.06
        c0,11.26-1.12,26.64-15.38,26.64c-10.88,0-16.13-10.5-16.13-20.26c0-12.01,8.63-24.01,21.39-24.01
        C214.6,185.43,214.22,194.81,214.22,203.06z"/>
    <path d="M249,0.5C111.48,0.5,0,111.98,0,249.5s111.48,249,249,249s249-111.48,249-249S386.52,0.5,249,0.5z M249,469.98
        c-121.77,0-220.48-98.71-220.48-220.48S127.23,29.02,249,29.02s220.48,98.71,220.48,220.48S370.77,469.98,249,469.98z"/>
</svg>